<?xml version="1.0" encoding="utf-8"?>
<!-- Generator: Adobe Illustrator 28.1.0, SVG Export Plug-In . SVG Version: 6.00 Build 0)  -->
<svg version="1.1" id="Layer_1" xmlns="http://www.w3.org/2000/svg" xmlns:xlink="http://www.w3.org/1999/xlink" x="0px" y="0px"
	 viewBox="0 0 60 60" style="enable-background:new 0 0 60 60;" xml:space="preserve">
<style type="text/css">
	.st0{fill:#DB9FC7;stroke:#000000;stroke-miterlimit:10;}
	.st1{stroke:#000000;stroke-miterlimit:10;}
	.st2{fill:#F8E49C;stroke:#000000;stroke-width:0.75;stroke-miterlimit:10;}
	.st3{fill:#FFFFFF;stroke:#000000;stroke-width:0.75;stroke-miterlimit:10;}
</style>
<ellipse class="st0" cx="30" cy="30" rx="27.26" ry="22.57"/>
<g>
	
		<rect x="43.42" y="10.47" transform="matrix(-0.8415 -0.5402 0.5402 -0.8415 69.0228 68.5433)" class="st1" width="2.28" height="27.36"/>
	
		<rect x="41.64" y="16.54" transform="matrix(-0.6418 0.7669 -0.7669 -0.6418 90.8878 11.3931)" class="st1" width="2.28" height="20.76"/>
</g>
<path class="st2" d="M26.78,32.17c-0.63,0.17-6.91,1.75-11.19-2.22c-2.52-2.34-4.55-6.79-2.85-8.98c1.64-2.1,6.15-1.39,8.88,0.24
	C26.95,24.36,26.79,31.7,26.78,32.17z"/>
<path class="st3" d="M49.2,41.76c-1.55,1.44-7.71,6.8-16.88,6.82c-13.48,0.03-21.03-11.5-21.53-12.3
	c2.93,2.26,10.25,7.26,20.86,8.12C39.57,45.04,45.84,43.09,49.2,41.76z"/>
</svg>
